<?xml version="1.0" encoding="utf-8"?>
<!-- Generator: Adobe Illustrator 26.5.0, SVG Export Plug-In . SVG Version: 6.00 Build 0)  -->
<svg version="1.1" id="Layer_1" xmlns="http://www.w3.org/2000/svg" xmlns:xlink="http://www.w3.org/1999/xlink" x="0px" y="0px"
	 viewBox="0 0 506.53 440.81" style="enable-background:new 0 0 506.53 440.81;" xml:space="preserve">
<style type="text/css">
	.st0{fill:none;stroke:#010101;}
	.st1{fill:none;stroke:#010101;stroke-linecap:square;}
	.st2{fill:#010101;}
	.st3{font-family:'Helvetica';}
	.st4{font-size:14px;}
	.st5{font-family:'ArialMT';}
	.st6{font-size:12px;}
	.st7{fill:none;stroke:#44AA99;stroke-width:2;}
</style>
<g>
	<line class="st0" x1="41.27" y1="70.8" x2="41.27" y2="60.8"/>
	<line class="st1" x1="66.35" y1="60.8" x2="41.27" y2="60.8"/>
	<text transform="matrix(1 0 0 1 76.3467 63.2985)" class="st2 st3 st4">a</text>
	<line class="st0" x1="41.27" y1="70.8" x2="41.27" y2="80.8"/>
	<line class="st1" x1="66.35" y1="80.8" x2="41.27" y2="80.8"/>
	<text transform="matrix(1 0 0 1 76.3467 83.2985)" class="st2 st3 st4">b</text>
	<line class="st0" x1="16.19" y1="90.8" x2="16.19" y2="70.8"/>
	<line class="st1" x1="41.27" y1="70.8" x2="16.19" y2="70.8"/>
	<line class="st0" x1="41.27" y1="110.8" x2="41.27" y2="100.8"/>
	<line class="st1" x1="66.35" y1="100.8" x2="41.27" y2="100.8"/>
	<text transform="matrix(1 0 0 1 76.3467 103.2985)" class="st2 st3 st4">c</text>
	<line class="st0" x1="41.27" y1="110.8" x2="41.27" y2="120.8"/>
	<line class="st1" x1="66.35" y1="120.8" x2="41.27" y2="120.8"/>
	<text transform="matrix(1 0 0 1 76.3467 123.2985)" class="st2 st3 st4">d</text>
	<line class="st0" x1="16.19" y1="90.8" x2="16.19" y2="110.8"/>
	<line class="st1" x1="41.27" y1="110.8" x2="16.19" y2="110.8"/>
</g>
<g>
	<line class="st0" x1="160.33" y1="80.55" x2="160.33" y2="60.55"/>
	<line class="st1" x1="235.41" y1="60.55" x2="160.33" y2="60.55"/>
	<text transform="matrix(1 0 0 1 245.4065 63.0485)" class="st2 st3 st4">o</text>
	<line class="st0" x1="210.38" y1="90.55" x2="210.38" y2="80.55"/>
	<line class="st1" x1="235.41" y1="80.55" x2="210.38" y2="80.55"/>
	<text transform="matrix(1 0 0 1 245.4065 83.0485)" class="st2 st3 st4">a</text>
	<line class="st0" x1="210.38" y1="90.55" x2="210.38" y2="100.55"/>
	<line class="st1" x1="235.41" y1="100.55" x2="210.38" y2="100.55"/>
	<text transform="matrix(1 0 0 1 245.4065 103.0485)" class="st2 st3 st4">b</text>
	<line class="st0" x1="185.36" y1="110.55" x2="185.36" y2="90.55"/>
	<line class="st1" x1="210.38" y1="90.55" x2="185.36" y2="90.55"/>
	<line class="st0" x1="210.38" y1="130.55" x2="210.38" y2="120.55"/>
	<line class="st1" x1="235.41" y1="120.55" x2="210.38" y2="120.55"/>
	<text transform="matrix(1 0 0 1 245.4065 123.0485)" class="st2 st3 st4">c</text>
	<line class="st0" x1="210.38" y1="130.55" x2="210.38" y2="140.55"/>
	<line class="st1" x1="235.41" y1="140.55" x2="210.38" y2="140.55"/>
	<text transform="matrix(1 0 0 1 245.4065 143.0485)" class="st2 st3 st4">d</text>
	<line class="st0" x1="185.36" y1="110.55" x2="185.36" y2="130.55"/>
	<line class="st1" x1="210.38" y1="130.55" x2="185.36" y2="130.55"/>
	<line class="st0" x1="160.33" y1="80.55" x2="160.33" y2="110.55"/>
	<line class="st1" x1="185.36" y1="110.55" x2="160.33" y2="110.55"/>
</g>
<g>
	<line class="st0" x1="26.31" y1="306.51" x2="26.31" y2="266.51"/>
	<line class="st1" x1="128.01" y1="266.51" x2="26.31" y2="266.51"/>
	<text transform="matrix(1 0 0 1 138.0062 269.0058)" class="st2 st3 st4">o</text>
	<line class="st0" x1="102.58" y1="296.51" x2="102.58" y2="286.51"/>
	<line class="st1" x1="128.01" y1="286.51" x2="102.58" y2="286.51"/>
	<text transform="matrix(1 0 0 1 138.0062 289.0058)" class="st2 st3 st4">a</text>
	<line class="st0" x1="102.58" y1="296.51" x2="102.58" y2="306.51"/>
	<line class="st1" x1="128.01" y1="306.51" x2="102.58" y2="306.51"/>
	<text transform="matrix(1 0 0 1 138.0062 309.0058)" class="st2 st3 st4">b</text>
	<line class="st0" x1="77.16" y1="316.51" x2="77.16" y2="296.51"/>
	<line class="st1" x1="102.58" y1="296.51" x2="77.16" y2="296.51"/>
	<line class="st0" x1="102.58" y1="336.51" x2="102.58" y2="326.51"/>
	<line class="st1" x1="128.01" y1="326.51" x2="102.58" y2="326.51"/>
	<text transform="matrix(1 0 0 1 138.0062 329.0058)" class="st2 st3 st4">c</text>
	<line class="st0" x1="102.58" y1="336.51" x2="102.58" y2="346.51"/>
	<line class="st1" x1="128.01" y1="346.51" x2="102.58" y2="346.51"/>
	<text transform="matrix(1 0 0 1 138.0062 349.0058)" class="st2 st3 st4">d</text>
	<line class="st0" x1="77.16" y1="316.51" x2="77.16" y2="336.51"/>
	<line class="st1" x1="102.58" y1="336.51" x2="77.16" y2="336.51"/>
	<line class="st0" x1="51.73" y1="346.51" x2="51.73" y2="316.51"/>
	<line class="st1" x1="77.16" y1="316.51" x2="51.73" y2="316.51"/>
	<line class="st0" x1="102.58" y1="376.51" x2="102.58" y2="366.51"/>
	<line class="st1" x1="128.01" y1="366.51" x2="102.58" y2="366.51"/>
	<text transform="matrix(1 0 0 1 138.0062 369.0058)" class="st2 st3 st4">a*</text>
	<line class="st0" x1="102.58" y1="376.51" x2="102.58" y2="386.51"/>
	<line class="st1" x1="128.01" y1="386.51" x2="102.58" y2="386.51"/>
	<text transform="matrix(1 0 0 1 138.0062 389.0058)" class="st2 st3 st4">b*</text>
	<line class="st0" x1="77.16" y1="386.51" x2="77.16" y2="376.51"/>
	<line class="st1" x1="102.58" y1="376.51" x2="77.16" y2="376.51"/>
	<line class="st0" x1="77.16" y1="386.51" x2="77.16" y2="406.51"/>
	<line class="st1" x1="128.01" y1="406.51" x2="77.16" y2="406.51"/>
	<text transform="matrix(1 0 0 1 138.0062 409.0058)" class="st2 st3 st4">c*</text>
	<line class="st0" x1="51.73" y1="346.51" x2="51.73" y2="386.51"/>
	<line class="st1" x1="77.16" y1="386.51" x2="51.73" y2="386.51"/>
	<line class="st0" x1="26.31" y1="306.51" x2="26.31" y2="346.51"/>
	<line class="st1" x1="51.73" y1="346.51" x2="26.31" y2="346.51"/>
</g>
<g>
	<line class="st0" x1="204.44" y1="306.26" x2="204.44" y2="266.26"/>
	<line class="st1" x1="329.73" y1="266.26" x2="204.44" y2="266.26"/>
	<text transform="matrix(1 0 0 1 339.7327 268.756)" class="st2 st3 st4">o</text>
	<line class="st0" x1="304.67" y1="296.26" x2="304.67" y2="286.26"/>
	<line class="st1" x1="329.73" y1="286.26" x2="304.67" y2="286.26"/>
	<text transform="matrix(1 0 0 1 339.7327 288.756)" class="st2 st3 st4">a</text>
	<line class="st0" x1="304.67" y1="296.26" x2="304.67" y2="306.26"/>
	<line class="st1" x1="329.73" y1="306.26" x2="304.67" y2="306.26"/>
	<text transform="matrix(1 0 0 1 339.7327 308.756)" class="st2 st3 st4">b</text>
	<line class="st0" x1="279.62" y1="316.26" x2="279.62" y2="296.26"/>
	<line class="st1" x1="304.67" y1="296.26" x2="279.62" y2="296.26"/>
	<line class="st0" x1="304.67" y1="336.26" x2="304.67" y2="326.26"/>
	<line class="st1" x1="329.73" y1="326.26" x2="304.67" y2="326.26"/>
	<text transform="matrix(1 0 0 1 339.7327 328.756)" class="st2 st3 st4">c</text>
	<line class="st0" x1="304.67" y1="336.26" x2="304.67" y2="346.26"/>
	<line class="st1" x1="329.73" y1="346.26" x2="304.67" y2="346.26"/>
	<text transform="matrix(1 0 0 1 339.7327 348.7561)" class="st2 st3 st4">d</text>
	<line class="st0" x1="279.62" y1="316.26" x2="279.62" y2="336.26"/>
	<line class="st1" x1="304.67" y1="336.26" x2="279.62" y2="336.26"/>
	<line class="st0" x1="229.5" y1="346.26" x2="229.5" y2="316.26"/>
	<line class="st1" x1="279.62" y1="316.26" x2="229.5" y2="316.26"/>
	<line class="st0" x1="254.56" y1="386.26" x2="254.56" y2="366.26"/>
	<line class="st1" x1="329.73" y1="366.26" x2="254.56" y2="366.26"/>
	<text transform="matrix(1 0 0 1 339.7327 368.756)" class="st2 st3 st4">o*</text>
	<line class="st0" x1="304.67" y1="396.26" x2="304.67" y2="386.26"/>
	<line class="st1" x1="329.73" y1="386.26" x2="304.67" y2="386.26"/>
	<text transform="matrix(1 0 0 1 339.7327 388.756)" class="st2 st3 st4">a*</text>
	<line class="st0" x1="304.67" y1="396.26" x2="304.67" y2="406.26"/>
	<line class="st1" x1="329.73" y1="406.26" x2="304.67" y2="406.26"/>
	<text transform="matrix(1 0 0 1 339.7327 408.756)" class="st2 st3 st4">b*</text>
	<line class="st0" x1="279.62" y1="406.26" x2="279.62" y2="396.26"/>
	<line class="st1" x1="304.67" y1="396.26" x2="279.62" y2="396.26"/>
	<line class="st0" x1="279.62" y1="406.26" x2="279.62" y2="426.26"/>
	<line class="st1" x1="329.73" y1="426.26" x2="279.62" y2="426.26"/>
	<text transform="matrix(1 0 0 1 339.7327 428.756)" class="st2 st3 st4">c*</text>
	<line class="st0" x1="254.56" y1="386.26" x2="254.56" y2="406.26"/>
	<line class="st1" x1="279.62" y1="406.26" x2="254.56" y2="406.26"/>
	<line class="st0" x1="229.5" y1="346.26" x2="229.5" y2="386.26"/>
	<line class="st1" x1="254.56" y1="386.26" x2="229.5" y2="386.26"/>
	<line class="st0" x1="204.44" y1="306.26" x2="204.44" y2="346.26"/>
	<line class="st1" x1="229.5" y1="346.26" x2="204.44" y2="346.26"/>
</g>
<g>
	<line class="st0" x1="340.72" y1="100.3" x2="340.72" y2="60.3"/>
	<line class="st1" x1="441.47" y1="60.3" x2="340.72" y2="60.3"/>
	<text transform="matrix(1 0 0 1 451.4675 62.7986)" class="st2 st3 st4">o</text>
	<line class="st0" x1="416.28" y1="90.3" x2="416.28" y2="80.3"/>
	<line class="st1" x1="441.47" y1="80.3" x2="416.28" y2="80.3"/>
	<text transform="matrix(1 0 0 1 451.4675 82.7986)" class="st2 st3 st4">a</text>
	<line class="st0" x1="416.28" y1="90.3" x2="416.28" y2="100.3"/>
	<line class="st1" x1="441.47" y1="100.3" x2="416.28" y2="100.3"/>
	<text transform="matrix(1 0 0 1 451.4675 102.7986)" class="st2 st3 st4">b</text>
	<line class="st0" x1="391.09" y1="110.3" x2="391.09" y2="90.3"/>
	<line class="st1" x1="416.28" y1="90.3" x2="391.09" y2="90.3"/>
	<line class="st0" x1="416.28" y1="130.3" x2="416.28" y2="120.3"/>
	<line class="st1" x1="441.47" y1="120.3" x2="416.28" y2="120.3"/>
	<text transform="matrix(1 0 0 1 451.4675 122.7986)" class="st2 st3 st4">c</text>
	<line class="st0" x1="416.28" y1="130.3" x2="416.28" y2="140.3"/>
	<line class="st1" x1="441.47" y1="140.3" x2="416.28" y2="140.3"/>
	<text transform="matrix(1 0 0 1 451.4675 142.7986)" class="st2 st3 st4">d</text>
	<line class="st0" x1="391.09" y1="110.3" x2="391.09" y2="130.3"/>
	<line class="st1" x1="416.28" y1="130.3" x2="391.09" y2="130.3"/>
	<line class="st0" x1="365.9" y1="140.3" x2="365.9" y2="110.3"/>
	<line class="st1" x1="391.09" y1="110.3" x2="365.9" y2="110.3"/>
	<line class="st0" x1="416.28" y1="170.3" x2="416.28" y2="160.3"/>
	<line class="st1" x1="441.47" y1="160.3" x2="416.28" y2="160.3"/>
	<text transform="matrix(1 0 0 1 451.4675 162.7986)" class="st2 st3 st4">e</text>
	<line class="st0" x1="416.28" y1="170.3" x2="416.28" y2="180.3"/>
	<line class="st1" x1="441.47" y1="180.3" x2="416.28" y2="180.3"/>
	<text transform="matrix(1 0 0 1 451.4675 182.7986)" class="st2 st3 st4">f</text>
	<line class="st0" x1="391.09" y1="180.3" x2="391.09" y2="170.3"/>
	<line class="st1" x1="416.28" y1="170.3" x2="391.09" y2="170.3"/>
	<line class="st0" x1="391.09" y1="180.3" x2="391.09" y2="200.3"/>
	<line class="st1" x1="441.47" y1="200.3" x2="391.09" y2="200.3"/>
	<text transform="matrix(1 0 0 1 451.4675 202.7986)" class="st2 st3 st4">a*</text>
	<line class="st0" x1="365.9" y1="140.3" x2="365.9" y2="180.3"/>
	<line class="st1" x1="391.09" y1="180.3" x2="365.9" y2="180.3"/>
	<line class="st0" x1="340.72" y1="100.3" x2="340.72" y2="140.3"/>
	<line class="st1" x1="365.9" y1="140.3" x2="340.72" y2="140.3"/>
</g>
<text transform="matrix(1 0 0 1 15.3906 21.649)" class="st5 st6">No outgroup</text>
<text transform="matrix(1 0 0 1 150.3771 21.6486)" class="st5 st6">Monophyletic outgroup</text>
<text transform="matrix(1 0 0 1 163.1671 36.0486)" class="st5 st6">No duplicated taxa</text>
<text transform="matrix(1 0 0 1 341.0972 21.6486)" class="st5 st6">Monophyletic outgroup</text>
<text transform="matrix(1 0 0 1 310.8672 36.0486)" class="st5 st6">Not enough duplicated taxa overlap</text>
<text transform="matrix(1 0 0 1 27.5001 225.3049)" class="st5 st6">Monophyletic outgroup</text>
<text transform="matrix(1 0 0 1 7.8201 239.7049)" class="st5 st6">Enough duplicated taxa overlap</text>
<text transform="matrix(1 0 0 1 204.5482 225.3049)" class="st5 st6">Non-monophyletic outgroup</text>
<rect x="150.61" y="47.97" class="st7" width="112.76" height="105.34"/>
<rect x="329.85" y="50.13" class="st7" width="137.89" height="137.89"/>
<rect x="14.89" y="252.53" class="st7" width="137.89" height="100.38"/>
<rect x="66.35" y="357.31" class="st7" width="86.43" height="58.94"/>
<g>
	<text transform="matrix(1 0 0 1 381.4977 313.0065)" class="st5 st6">Outgroup: O</text>
	<text transform="matrix(1 0 0 1 381.4977 327.4065)" class="st5 st6">Ingroups: A-F</text>
	<text transform="matrix(1 0 0 1 381.4977 341.8065)" class="st5 st6">Inferred orthologs: </text>
	<rect x="482.28" y="334.31" class="st7" width="8.45" height="9.22"/>
</g>
</svg>
